<?xml version="1.0" encoding="iso-8859-1"?>
<!-- Generator: Adobe Illustrator 19.0.0, SVG Export Plug-In . SVG Version: 6.00 Build 0)  -->
<svg version="1.1" id="Capa_1" xmlns="http://www.w3.org/2000/svg" xmlns:xlink="http://www.w3.org/1999/xlink" x="0px" y="0px"
	 viewBox="0 0 512 512" style="enable-background:new 0 0 512 512;" xml:space="preserve">
<polygon style="fill:#B34F03;" points="240,307.5 240,451 90,451 90,329.099 "/>
<polygon style="fill:#913F02;" points="165,318.3 240,307.5 240,451 165,451 "/>
<polygon style="fill:#FFBD86;" points="482,360 482,512 332,512 332,360 392,360 407,375 422,360 "/>
<polygon style="fill:#F6A96C;" points="482,360 482,512 407,512 407,375 422,360 "/>
<path style="fill:#FF7816;" d="M240,315c0,41.4-33.6,75-75,75c-28.801,0-54.3-15.901-67.2-41.4l-90-180l157.2-9.3l5.7-0.3
	l61.5,122.4c3.6,7.8,6.301,15.899,7.2,24.3C239.7,308.699,240,312.001,240,315z"/>
<path style="fill:#E56705;" d="M165,390V159.3l5.7-0.3l61.5,122.4c3.6,7.8,6.301,15.899,7.2,24.3c0.3,2.999,0.601,6.301,0.601,9.3
	C240,356.4,206.4,390,165,390z"/>
<polygon style="fill:#FF9100;" points="412.4,89.099 165,181.199 103.2,204.3 61.5,61.199 165,42.599 398.899,0.601 "/>
<polygon style="fill:#FF7816;" points="412.4,89.099 165,181.199 165,42.599 398.899,0.601 "/>
<path style="fill:#5A5A5A;" d="M7.881,168.501C2.725,158.188,0,146.602,0,135c0-35.698,25.386-66.65,60.366-73.564
	c36.015-6.6,67.441,11.457,81.753,40.063v0.015C147.35,111.995,150,123.424,150,135c0,30.381-18.12,57.554-46.172,69.243
	C68.71,218.932,26.128,204.995,7.881,168.501z"/>
<polygon style="fill:#B34F03;" points="485.3,252.001 450.5,321.599 423.5,308.401 448.7,257.999 407,216.301 365.3,257.999 
	390.5,308.401 363.5,321.599 328.7,252.001 392,188.699 392,75 422,75 422,188.699 "/>
<rect x="60" y="120" style="fill:#EDE9E8;" width="30" height="30"/>
<polygon style="fill:#77DD00;" points="512,482 512,512 270,512 240,500.3 270,482 "/>
<rect x="392" y="360" style="fill:#FF9100;" width="30" height="30"/>
<rect x="407" y="360" style="fill:#FF7816;" width="15" height="30"/>
<polygon style="fill:#913F02;" points="485.3,252.001 450.5,321.599 423.5,308.401 448.7,257.999 407,216.301 407,75 422,75 
	422,188.699 "/>
<rect x="407" y="482" style="fill:#66BB00;" width="105" height="30"/>
<path style="fill:#5A5A5A;" d="M407,0c-2.701,0-5.4,0.3-8.699,0.901C377.3,5.099,362,23.699,362,45c0,24.901,20.099,45,45,45
	s45-20.099,45-45S431.901,0,407,0z"/>
<path style="fill:#444444;" d="M407,90V0c24.901,0,45,20.099,45,45S431.901,90,407,90z"/>
<path style="fill:#5A5A5A;" d="M60,420v92h210v-92H60z"/>
<rect x="165" y="420" style="fill:#444444;" width="105" height="92"/>
<g>
</g>
<g>
</g>
<g>
</g>
<g>
</g>
<g>
</g>
<g>
</g>
<g>
</g>
<g>
</g>
<g>
</g>
<g>
</g>
<g>
</g>
<g>
</g>
<g>
</g>
<g>
</g>
<g>
</g>
</svg>
