<svg xmlns="http://www.w3.org/2000/svg" viewBox="0 0 512 512"><path fill="#b34f03" d="M240 307.5V451H90V329.099z"/><path fill="#913f02" d="M165 318.3l75-10.8V451h-75z"/><path fill="#ffbd86" d="M482 360v152H332V360h60l15 15 15-15z"/><path fill="#f6a96c" d="M482 360v152h-75V375l15-15z"/><path d="M240 315c0 41.4-33.6 75-75 75-28.801 0-54.3-15.901-67.2-41.4l-90-180 157.2-9.3 5.7-.3 61.5 122.4c3.6 7.8 6.301 15.899 7.2 24.3.3 2.999.6 6.301.6 9.3z" fill="#ff7816"/><path d="M165 390V159.3l5.7-.3 61.5 122.4c3.6 7.8 6.301 15.899 7.2 24.3.3 2.999.601 6.301.601 9.3C240 356.4 206.4 390 165 390z" fill="#e56705"/><path fill="#ff9100" d="M412.4 89.099l-247.4 92.1-61.8 23.101L61.5 61.199l103.5-18.6L398.899.601z"/><path fill="#ff7816" d="M412.4 89.099l-247.4 92.1v-138.6L398.899.601z"/><path d="M7.881 168.501C2.725 158.188 0 146.602 0 135c0-35.698 25.386-66.65 60.366-73.564 36.015-6.6 67.441 11.457 81.753 40.063v.015A74.835 74.835 0 0 1 150 135c0 30.381-18.12 57.554-46.172 69.243-35.118 14.689-77.7.752-95.947-35.742z" fill="#5a5a5a"/><path fill="#b34f03" d="M485.3 252.001l-34.8 69.598-27-13.198 25.2-50.402-41.7-41.698-41.7 41.698 25.2 50.402-27 13.198-34.8-69.598 63.3-63.302V75h30v113.699z"/><path fill="#ede9e8" d="M60 120h30v30H60z"/><path fill="#7d0" d="M512 482v30H270l-30-11.7 30-18.3z"/><path fill="#ff9100" d="M392 360h30v30h-30z"/><path fill="#ff7816" d="M407 360h15v30h-15z"/><path fill="#913f02" d="M485.3 252.001l-34.8 69.598-27-13.198 25.2-50.402-41.7-41.698V75h15v113.699z"/><path fill="#6b0" d="M407 482h105v30H407z"/><path d="M407 0c-2.701 0-5.4.3-8.699.901C377.3 5.099 362 23.699 362 45c0 24.901 20.099 45 45 45s45-20.099 45-45-20.099-45-45-45z" fill="#5a5a5a"/><path d="M407 90V0c24.901 0 45 20.099 45 45s-20.099 45-45 45z" fill="#444"/><path d="M60 420v92h210v-92H60z" fill="#5a5a5a"/><path fill="#444" d="M165 420h105v92H165z"/></svg>